<svg id="Logo" xmlns="http://www.w3.org/2000/svg" viewBox="0 0 285.2 81.6"><path d="M.5 18.8h5.7l3.3 12.5 3.3-12.5h5.5l-5.6 19.3 6.1 21.2h-6.1L9.4 45.9 6.1 59.4H0l6.1-21.2zm26.9 40.6h-5.5l5.5-40.6h7.3L40 59.4h-5.5l-1-9.1h-5.1zm3.5-33.2L29 45h3.9zm17.9 33.2h-5.5l5.5-40.6h7.3l5.3 40.6h-5.5l-1-9.1h-5.1zm3.5-33.2L50.4 45h3.9zm17.6 21.2v1.8c0 4.2.7 5.5 2.9 5.5 1.7 0 2.6-1.4 2.6-4s-.7-4.3-3.5-8l-2.8-4.1c-3.5-5.2-4.6-8-4.6-11.6 0-5.4 3.2-8.8 8.3-8.8a7.16 7.16 0 017.4 5.9 19.17 19.17 0 01.3 5l-5.5.6a23.42 23.42 0 00-.2-3.6c-.2-1.6-1.1-2.6-2.4-2.6-1.5 0-2.4 1.3-2.4 3.8s.2 3 4 8.7l2.9 4.1c2.6 3.8 4.1 8 4.1 11.4 0 5.4-3 8.5-8.3 8.5a7.93 7.93 0 01-6.8-3.1c-1.3-1.8-1.8-3.5-1.8-7.1a17 17 0 01.1-2.2zm103.7 0v1.8c0 4.2.7 5.5 2.9 5.5 1.7 0 2.6-1.4 2.6-4s-.7-4.3-3.5-8l-2.8-4.1c-3.5-5.2-4.6-8-4.6-11.6 0-5.4 3.2-8.8 8.3-8.8a7.16 7.16 0 017.4 5.9 19.17 19.17 0 01.3 5l-5.5.5a23.42 23.42 0 00-.2-3.6c-.2-1.6-1.1-2.6-2.4-2.6-1.5 0-2.4 1.3-2.4 3.8s.2 3 4 8.7l2.9 4.1c2.6 3.8 4.1 8 4.1 11.4 0 5.4-3 8.5-8.3 8.5a7.93 7.93 0 01-6.8-3.1c-1.3-1.8-1.8-3.5-1.8-7.1a17 17 0 01.1-2.2zm20.1 4c0 2.3.7 3.3 2.4 3.3s2.4-1 2.4-3.3V18.8h5.7v30.3c0 4.8-.2 5.8-1.3 7.6a8.07 8.07 0 01-6.8 3.3 8.2 8.2 0 01-6.8-3.3c-1.1-1.8-1.3-2.8-1.3-7.6V18.8h5.7v32.6zM223 18.8h6.8v40.6h-4.9V30.7l-4.7 28.6h-2.4l-4.7-28.6v28.6h-4.7V18.8h6.7l4 20.2zm25.9 0h6.8v40.6h-4.9V30.7l-4.7 28.7h-2.4l-4.8-28.7v28.6h-4.7V18.8h6.7l4 20.2zm16.8 40.6H260V18.8h5.7zm8.3-35.3h-5.3v-5.3h16.5v5.3h-5.5v35.3H274zM141.3 41l5.2-5.2V25.4L130.9 41l5.2 5.2L155.9 66V55.6L141.3 41zm-20.7 10.4l-10.5 10.4-20.5 19.8H100l20.5-19.8 5.2-5.2 5.3 5.2h10.3l-10.4-10.4-5.2-5.2-5.1 5.2zM110.2 41l-5.2 5.2v10.4l10.4-10.4 5.2-5.2-5.2-5.2-19.8-19.7v10.3L110.2 41zM152 0l-26.3 25.5-5.2-5.3h-10.4l10.4 10.4 5.2 5.2 5.2-5.2L162.4 0H152z" fill="#fff"/></svg>